<svg xmlns="http://www.w3.org/2000/svg" viewBox="0 0 197.62 205.3"><defs><style>.cls-1{isolation:isolate;}.cls-2,.cls-3{fill:#efc494;}.cls-28,.cls-3{opacity:0.7;}.cls-13,.cls-15,.cls-20,.cls-22,.cls-24,.cls-27,.cls-28,.cls-3,.cls-5{mix-blend-mode:multiply;}.cls-4{fill:#e5b380;}.cls-5{fill:#d38e60;opacity:0.78;}.cls-6{fill:#4e2d15;}.cls-7{fill:#110909;}.cls-8{fill:#f1f1f1;}.cls-9{fill:#8f523e;}.cls-10{fill:#9a5316;}.cls-11{fill:#854014;}.cls-12,.cls-13,.cls-14,.cls-15{fill:#4e2f16;}.cls-13{opacity:0.6;}.cls-14,.cls-15,.cls-20,.cls-21{opacity:0.5;}.cls-14,.cls-21{mix-blend-mode:screen;}.cls-16,.cls-27{fill:#202125;}.cls-17,.cls-20,.cls-21{fill:#262c4a;}.cls-18,.cls-22,.cls-28{fill:#fdc322;}.cls-19{fill:#0f1422;}.cls-23,.cls-24{fill:#ffdb27;}.cls-25{fill:#efad0a;}.cls-26{fill:#bf7100;}.cls-27{opacity:0.9;}</style></defs><title>Asset 1301px</title><g class="cls-1"><g id="Layer_2" data-name="Layer 2"><g id="Layer_1-2" data-name="Layer 1"><path class="cls-2" d="M179.5,112.54c-5.56-33.56-37.84-53-82.4-53s-68,14.71-78.72,51.12c-6.1,20.73-.91,39,3,50,0,0,14.17,42.63,71.85,44.63,60.6,2.1,77.61-41.67,77.61-41.67S183.17,134.74,179.5,112.54Z"/><path class="cls-3" d="M179.5,112.54c-5.56-33.56-37.84-53-82.4-53s-68,14.71-78.72,51.12c-6.1,20.73-.91,39,3,50,0,0,14.17,42.63,71.85,44.63,60.6,2.1,77.61-41.67,77.61-41.67S183.17,134.74,179.5,112.54ZM96.24,203.3c-53,0-78.93-45.82-74.82-70.89s13-40.63,74.54-41.8,69.33,10.59,73.67,34.07S158.46,203.3,96.24,203.3Z"/><path class="cls-4" d="M1.63,143.6c-7.64,15.82,13.72,25.14,19.79,17a96.13,96.13,0,0,1-5.36-22,8.85,8.85,0,0,0-2-1.19S6.17,134.18,1.63,143.6Z"/><path class="cls-4" d="M170.88,163.56s6.22,7.9,16.28-.24,8.26-24.19-3.47-24.91a10.46,10.46,0,0,0-5.77,2.28A139.65,139.65,0,0,1,170.88,163.56Z"/><path class="cls-5" d="M125.45,143.59a5.56,5.56,0,1,1-5.57-5.57A5.57,5.57,0,0,1,125.45,143.59Z"/><path class="cls-6" d="M124.5,143.59a4.61,4.61,0,1,1-4.62-4.61A4.62,4.62,0,0,1,124.5,143.59Z"/><path class="cls-7" d="M122.5,143.63a2.7,2.7,0,1,1-2.7-2.72A2.7,2.7,0,0,1,122.5,143.63Z"/><path class="cls-8" d="M119.38,142.66a1.36,1.36,0,1,1-1.36-1.37A1.35,1.35,0,0,1,119.38,142.66Z"/><path class="cls-8" d="M123.43,145.79a.75.75,0,0,1-1.5,0,.75.75,0,0,1,1.5,0Z"/><path class="cls-5" d="M71.83,142.94a5.57,5.57,0,1,1-5.57-5.56A5.57,5.57,0,0,1,71.83,142.94Z"/><path class="cls-6" d="M70.87,142.94a4.61,4.61,0,1,1-4.61-4.61A4.62,4.62,0,0,1,70.87,142.94Z"/><path class="cls-7" d="M68.88,143a2.7,2.7,0,1,1-2.7-2.71A2.7,2.7,0,0,1,68.88,143Z"/><path class="cls-8" d="M65.76,142a1.36,1.36,0,1,1-1.37-1.37A1.36,1.36,0,0,1,65.76,142Z"/><path class="cls-8" d="M69.81,145.14a.75.75,0,1,1-.76-.75A.75.75,0,0,1,69.81,145.14Z"/><path class="cls-9" d="M88.34,195.22a4.16,4.16,0,0,0,.57.49,5.47,5.47,0,0,0,.73.47,6,6,0,0,0,1,.45,6.12,6.12,0,0,0,1.23.39,9.07,9.07,0,0,0,1.43.25c.5,0,1,.11,1.54.11l1.61,0h.37l.41-.07.82-.12a8.49,8.49,0,0,0,1.47-.4,10.55,10.55,0,0,0,1.33-.54c.43-.18.78-.45,1.14-.64s.64-.44.92-.63.48-.4.67-.55c.36-.33.55-.53.55-.53a4.76,4.76,0,0,1-.41.65c-.16.19-.33.44-.57.69a8.06,8.06,0,0,1-.83.81,8.31,8.31,0,0,1-1.12.82,7.9,7.9,0,0,1-1.39.72l-.8.29-.4.14-.41.08-.81.14-.41.08a4.21,4.21,0,0,1-.46,0l-1.71,0a14.4,14.4,0,0,1-1.64-.21,7,7,0,0,1-1.5-.4,7.31,7.31,0,0,1-2.24-1.23,5.69,5.69,0,0,1-.65-.62,3.49,3.49,0,0,1-.35-.46Z"/><path class="cls-3" d="M87.34,194.38a9.83,9.83,0,0,0,8.9,3.46,10.7,10.7,0,0,0,8.34-4.9s-.3,6.84-8.62,7.19C88.34,200.45,87.34,194.38,87.34,194.38Z"/><path class="cls-10" d="M176,159.77a4.41,4.41,0,0,0,4.61,2c5.1-1.23,7-6.41,5.87-11.22a5.82,5.82,0,0,0-2.34-3.89,1,1,0,0,0-.3-.32c-4.53-2.26-7.14,4.22-8.11,7.55C175.15,155.78,174.68,158.06,176,159.77Z"/><path class="cls-11" d="M182.33,151.78c0-1.74-.39-4.73-2.89-3.92a6.33,6.33,0,0,0-1.36.66,20.05,20.05,0,0,0-2.38,5.38c-.55,1.88-1,4.16.27,5.87.19.24.39.46.59.68a9,9,0,0,0,2-1.21A10.56,10.56,0,0,0,182.33,151.78Z"/><path class="cls-10" d="M17.58,151.6c-1-3.33-3.58-9.8-8.11-7.55a1.1,1.1,0,0,0-.3.33,5.85,5.85,0,0,0-2.33,3.89c-1.11,4.81.76,10,5.86,11.22a4.43,4.43,0,0,0,4.61-2C18.6,155.76,18.13,153.49,17.58,151.6Z"/><path class="cls-11" d="M11,149.49c0-1.74.39-4.73,2.89-3.92a6.11,6.11,0,0,1,1.36.66,20,20,0,0,1,2.38,5.37c.55,1.89,1,4.16-.27,5.88a7.63,7.63,0,0,1-.59.67,9.06,9.06,0,0,1-2-1.2A10.55,10.55,0,0,1,11,149.49Z"/><path class="cls-3" d="M16.06,138.64a8.85,8.85,0,0,0-2-1.19s-7.91-3.27-12.45,6.15c-7.64,15.82,13.72,25.14,19.79,17A96.13,96.13,0,0,1,16.06,138.64Zm-10.45,12c.08,8.31-2.95,6.79-4.47,2.4-2.64-7.65,5.57-16.84,9.57-15.64S5.52,142.32,5.61,150.62Z"/><path class="cls-3" d="M183.69,138.41a10.46,10.46,0,0,0-5.77,2.28,139.65,139.65,0,0,1-7,22.87s6.22,7.9,16.28-.24S195.42,139.13,183.69,138.41Zm3.06,19.76c3.06-6.11.32-12.86-6.57-13.78-7.22-.95,9.74-10.77,12.85,3.15C195.41,158.16,183.69,164.28,186.75,158.17Z"/><path class="cls-12" d="M180.18,76.64s-3.4-37.55-80.36-37.55-77,37.45-77,37.45S2.49,86.38,3.7,110.91c.74,15,10.38,26.05,10.38,26.05a8.64,8.64,0,0,1,2,1.37s1.89-18.46,6.64-31.7C37.19,66.26,52.55,67.42,97.1,67.42s61.73-1.44,72.7,35.63a282.37,282.37,0,0,1,8.12,37.64,9.57,9.57,0,0,1,5.83-2.28s9.15-13.6,11.14-27.44C197.77,91.06,186.89,77.47,180.18,76.64Z"/><path class="cls-13" d="M180.18,76.64s-3.4-37.55-80.36-37.55-77,37.45-77,37.45S2.49,86.38,3.7,110.91c.74,15,10.38,26.05,10.38,26.05a8.64,8.64,0,0,1,2,1.37s1.89-18.46,6.64-31.7C37.19,66.26,52.55,67.42,97.1,67.42s61.73-1.44,72.7,35.63a282.37,282.37,0,0,1,8.12,37.64,9.57,9.57,0,0,1,5.83-2.28s9.15-13.6,11.14-27.44C197.77,91.06,186.89,77.47,180.18,76.64ZM24.66,91.05a80.09,80.09,0,0,0-7.43,23.44c-1.92,11.72-1.8,19-4.9,12.82S9.21,111.73,9.21,115c0,5.93-1,9.79-2.68,5C1.1,105,8.67,95.13,12.8,91.65c1.93-1.62,3.75-1.65,3.11.74s-1.15,4.32-1.15,4.32C18,89.54,26.45,87.61,24.66,91.05ZM186,123.54a28.2,28.2,0,0,0-1.27-7c-.48,10.84-4.63,19.85-6,10.47a157.88,157.88,0,0,0-7.86-31.61c-2.18-6.21-3.36-11.21,2.39-8.46s9.06,11.4,9.06,11.4c-2-12.68,8-7,9,8.46S186.2,127.22,186,123.54Z"/><path class="cls-14" d="M5.69,106.26C7.15,95,15.58,90.6,12.33,101.67c0,0,3.74-7,6.7-7.81s-.64,3.86-2.48,12.4S15,121,13.76,121.43s-4.15-9.05-4-13.82a32.74,32.74,0,0,0-1.44,8.76C8.41,120.33,4.34,116.74,5.69,106.26Z"/><path class="cls-14" d="M175.29,103.87c2.45,5.57,3.34,11.43,4.53,17.58s5.3-2.3,3.8-13.42A29.89,29.89,0,0,1,187,119.54c.24,5.9,5.08-4.66,1.41-17.07s-7.35-7.79-6.25,1c0,0-2.39-6.21-5.52-9.53C170.72,87.66,170.08,92,175.29,103.87Z"/><path class="cls-12" d="M116,131.58c2.93-3.6,9.16-10.44,14.41-10.67,5.08-.23,7.88,4.61,9.08,7.43.48,1.14.15,1.65-.87,1.29-3.38-1.21-11.87-3.09-22.46,3C115.56,133,115,132.89,116,131.58Z"/><path class="cls-15" d="M139.5,128.34c-1.2-2.82-4-7.66-9.08-7.43-5.25.23-11.48,7.07-14.41,10.67-1.06,1.31-.45,1.4.16,1,10.59-6.09,19.08-4.21,22.46-3C139.65,130,140,129.48,139.5,128.34Zm-2.84-.27c-2.72-.94-9.54-2.42-18.06,2.36-.48.28-1,.2-.13-.82,2.36-2.83,7.37-8.2,11.59-8.38s6.33,3.62,7.3,5.83C137.75,128,137.48,128.36,136.66,128.07Z"/><path class="cls-12" d="M77.13,132.68c-2.42-4.08-7.67-11.92-12.84-12.84-5-.9-8.44,3.71-10,6.44-.63,1.12-.37,1.68.69,1.44,3.51-.8,12.19-1.63,21.86,6C77.39,134.18,78,134.15,77.13,132.68Z"/><path class="cls-15" d="M55,127.72c3.51-.8,12.19-1.63,21.86,6,.56.44,1.18.41.3-1.06-2.42-4.08-7.67-11.92-12.84-12.84-5-.9-8.44,3.71-10,6.44C53.65,127.4,53.91,128,55,127.72Zm1.61-2.47c1.25-2.14,4-5.75,8-5S73,127.12,75,130.33c.7,1.16.2,1.18-.24.83-7.79-6-14.76-5.4-17.58-4.78C56.29,126.57,56.07,126.12,56.58,125.25Z"/><path class="cls-9" d="M75.62,177.72a12.28,12.28,0,0,0,1.07,1.51,19.47,19.47,0,0,0,3.51,3.36,12.71,12.71,0,0,0,1.29.89,11.82,11.82,0,0,0,1.44.84l.78.4.82.34.84.35.88.29.89.29c.31.08.62.14.94.21a13.15,13.15,0,0,0,1.91.35,26,26,0,0,0,3.94.26l2-.08c.67,0,1.31-.16,2-.23a22.35,22.35,0,0,0,3.73-.92,23.18,23.18,0,0,0,3.31-1.4,20.51,20.51,0,0,0,2.75-1.7,24.2,24.2,0,0,0,2.11-1.76,20.17,20.17,0,0,0,1.48-1.53c.38-.45.67-.82.85-1.07s.28-.4.28-.4a11.09,11.09,0,0,1-1,1.59,20.64,20.64,0,0,1-1.36,1.67,18.32,18.32,0,0,1-2,1.92,20.53,20.53,0,0,1-2.74,1.89,18.45,18.45,0,0,1-3.38,1.58,23.22,23.22,0,0,1-3.86,1c-.67.09-1.36.21-2,.28l-2,.1a26.54,26.54,0,0,1-4.12-.32,15.77,15.77,0,0,1-2-.4c-.33-.08-.65-.15-1-.24l-.93-.32-.91-.31-.86-.4-.83-.39-.78-.45a12.59,12.59,0,0,1-1.46-.94,14.59,14.59,0,0,1-1.27-1,17.86,17.86,0,0,1-3.33-3.68A10.53,10.53,0,0,1,75.62,177.72Z"/><path class="cls-16" d="M21.17,70.1s-1.6,4.73,1.6,6.44c0,0,19-13.5,76.74-13.5s80.67,13.6,80.67,13.6,2.74-2.23,1.3-7.82c0,0-20.16-20.15-82-20.15S21.17,70.1,21.17,70.1Z"/><path class="cls-17" d="M180.18,76.64S157.21,63,99.51,63s-76.74,13.5-76.74,13.5,5.13,36.19,75.11,36.19S180.18,76.64,180.18,76.64Z"/><path class="cls-17" d="M21.17,70.1S37.69,48.67,99.51,48.67s82,20.15,82,20.15,16.61-4.31,16.13-16S146.69,0,101.33,0,1.64,37.44,6.53,51.69C10.57,63.45,21.17,70.1,21.17,70.1Z"/><path class="cls-18" d="M99.51,54.61c-52.21,0-78.64,19.2-78.64,19.2a3.68,3.68,0,0,0,1.9,2.73S41.8,63,99.51,63s80.67,13.6,80.67,13.6a5.15,5.15,0,0,0,1.4-2.46S158.05,54.61,99.51,54.61Z"/><path class="cls-19" d="M97.88,109.06c-66,0-75.11-32.52-75.11-32.52s5.13,36.19,75.11,36.19,82.3-36.09,82.3-36.09S163.91,109.06,97.88,109.06Z"/><path class="cls-20" d="M99.51,63c-57.71,0-76.74,13.5-76.74,13.5s5.13,36.19,75.11,36.19,82.3-36.09,82.3-36.09S157.21,63,99.51,63Zm0,39.26c-59.18,0-71.63-25.66-71.63-25.66s62.75-24.15,147.29,0C175.17,76.64,156.25,102.3,99.51,102.3Z"/><path class="cls-21" d="M34.82,76.64S64.76,62,146.43,71.85c0,0-33.93-1.75-32.1,23.34C114.33,95.19,54.94,100.11,34.82,76.64Z"/><path class="cls-20" d="M101.33,0C56,0,1.64,37.44,6.53,51.69c4,11.76,14.64,18.41,14.64,18.41S37.69,48.67,99.51,48.67s82,20.15,82,20.15,16.61-4.31,16.13-16S146.69,0,101.33,0Zm79.43,62.66c-86.63-44.16-158-3.15-158-3.15s-7.9-4.09-8.23-11.32S54.15,1.47,101.33,1.47,189.6,43,191.46,48.67C193.85,55.93,180.76,62.66,180.76,62.66Z"/><path class="cls-21" d="M20.77,54.61s17.32-24.35,82.31-24.35S184.35,58,184.35,58a12.88,12.88,0,0,0,4.1-9.29c.08-5.62-45.62-44.68-87-44.68s-81,34.11-82.1,40A17.51,17.51,0,0,0,20.77,54.61Z"/><path class="cls-3" d="M74.82,175.16s5,9.42,17.89,9.42a27.75,27.75,0,0,0,20.43-9.42s-.8,13.89-19.16,13.89S74.82,175.16,74.82,175.16Z"/><path class="cls-22" d="M99.51,54.61c-52.21,0-78.64,19.2-78.64,19.2a3.68,3.68,0,0,0,1.9,2.73S41.8,63,99.51,63s80.67,13.6,80.67,13.6a5.15,5.15,0,0,0,1.4-2.46S158.05,54.61,99.51,54.61ZM23.25,74.89s25.36-19.32,78.67-19.32,77.93,19.32,77.93,19.32C92.22,41.2,23.25,74.89,23.25,74.89Z"/><path class="cls-20" d="M118.61,14.39c-6.47,0-7,.52-7,4.24,0,3-1.25,3.92-1.73,4.16,0-.7,0-1.39,0-2.1l-9.45-8.48L91,20.69c0,.81,0,1.61,0,2.41a1.77,1.77,0,0,1,0-.23s-1.91-.53-1.91-4.24-.57-4.24-7-4.24S62.2,15.64,62.2,17.46s7.72,1.41,7.72,1.41a1.94,1.94,0,0,0,1.33,1.58,46.71,46.71,0,0,0,6.81.5h0s1.18.06,2.72.08c-.89.12-6.5.95-6.54,1.88s5.6,1.05,8.21,1.14c0,0,.44,0,1.22,0-.58.13-5.35,1.13-5.31,1.93s6.3,1.05,6.3,1.05-2.3.8-2.3,1.86c0,1.25,6.63,1.33,6.63,1.33s-1.26.57-1.26,1.62S90.2,33,93.25,33q-.25-.35-.48-.72C94.1,34.55,96.41,36,100.42,36c3.56,0,5.77-1.12,7.15-2.93,3,0,5.34-.12,5.34-1.15s-1.25-1.62-1.25-1.62,6.62-.08,6.62-1.33c0-1.06-2.3-1.86-2.3-1.86s6.26-.2,6.3-1.05-4.72-1.8-5.31-1.93c.79,0,1.23,0,1.23,0,2.6-.09,8.23-.36,8.2-1.14s-5.65-1.76-6.53-1.88c1.54,0,2.72-.08,2.72-.08h0a46.71,46.71,0,0,0,6.81-.5,2,2,0,0,0,1.34-1.58s7.71.4,7.71-1.41S125.07,14.39,118.61,14.39Z"/><path class="cls-23" d="M100,11.18l-9.34,8.38c0,7.74.24,15.09,9.34,15.09s9.34-7.35,9.34-15.09Z"/><path class="cls-24" d="M100,11.18l-9.34,8.38c0,7.74.24,15.09,9.34,15.09s9.34-7.35,9.34-15.09Zm0,22.07c-8.16,0-8.38-6.58-8.38-13.53L100,12.21l8.37,7.51C108.34,26.67,108.13,33.25,100,33.25Z"/><path class="cls-24" d="M100,14.61l-7,6.25c0,5.77.17,11.24,7,11.24s7-5.47,7-11.24Z"/><path class="cls-16" d="M100,14.42l-6.76,6.07c0,5.6.17,10.91,6.76,10.91s6.76-5.31,6.76-10.91Z"/><path class="cls-18" d="M90.81,25.09c-.1-1.08-.15-2.21-.17-3.37,0,0-1.89-.52-1.89-4.2s-.56-4.19-7-4.19-19.6,1.24-19.6,3,7.63,1.39,7.63,1.39H82.06C86.54,17.76,84.7,24.16,90.81,25.09Z"/><path class="cls-25" d="M90.81,25.09c-6.11-.93-4.27-7.33-8.75-7.33H69.83a1.91,1.91,0,0,0,1.32,1.56c1.23.44,9.54.56,9.54.56s-6.55.88-6.59,1.88,9.38,1.15,9.38,1.15S78.13,24,78.17,24.83s6.23,1,6.23,1-2.28.79-2.28,1.83c0,1.24,6.55,1.32,6.55,1.32s-1.24.56-1.24,1.6,2.44,1.13,5.45,1.13A12.81,12.81,0,0,1,90.81,25.09Z"/><path class="cls-26" d="M77.87,19.81s.46-.12,1.14-.22a19.44,19.44,0,0,1,2.48-.18c.45,0,.9,0,1.32,0s.81,0,1.15.06a8.76,8.76,0,0,1,1.15.19,6.37,6.37,0,0,1-1.1.36,10.11,10.11,0,0,1-1.17.23c-.43.06-.88.06-1.34.08s-.92,0-1.34-.06A10.76,10.76,0,0,1,79,20.13,5.89,5.89,0,0,1,77.87,19.81Z"/><path class="cls-26" d="M82.2,22.88a3.57,3.57,0,0,1,.75-.25,9.19,9.19,0,0,1,1.61-.2,6.91,6.91,0,0,1,1.6.18,3.57,3.57,0,0,1,.74.27,3.64,3.64,0,0,1-.73.28,6.4,6.4,0,0,1-1.63.23,8.3,8.3,0,0,1-.87-.05,3.2,3.2,0,0,1-.75-.16A3.66,3.66,0,0,1,82.2,22.88Z"/><path class="cls-26" d="M83.22,25.81a8,8,0,0,1,1.2-.27,18.38,18.38,0,0,1,2.65-.21,16.85,16.85,0,0,1,2.65.21,8.37,8.37,0,0,1,1.21.27,9.14,9.14,0,0,1-1.21.28,17,17,0,0,1-2.65.2,15.91,15.91,0,0,1-2.65-.21A8,8,0,0,1,83.22,25.81Z"/><path class="cls-26" d="M87.9,29a2.42,2.42,0,0,1,.56-.27,3.56,3.56,0,0,1,1.23-.21,3.77,3.77,0,0,1,1.23.2,2.4,2.4,0,0,1,.56.28,2.18,2.18,0,0,1-.56.27,3.76,3.76,0,0,1-1.23.21,4.1,4.1,0,0,1-1.23-.21A2.42,2.42,0,0,1,87.9,29Z"/><path class="cls-18" d="M109.14,25.09c.1-1.08.15-2.21.17-3.37,0,0,1.89-.52,1.89-4.2s.56-4.19,6.94-4.19,19.6,1.24,19.6,3-7.62,1.39-7.62,1.39H117.88C113.4,17.76,115.25,24.16,109.14,25.09Z"/><path class="cls-25" d="M109.14,25.09c6.11-.93,4.26-7.33,8.74-7.33h12.24a1.91,1.91,0,0,1-1.32,1.56c-1.24.44-9.54.56-9.54.56s6.55.88,6.59,1.88-9.38,1.15-9.38,1.15,5.35,1.08,5.31,1.92-6.23,1-6.23,1,2.27.79,2.27,1.83c0,1.24-6.54,1.32-6.54,1.32s1.23.56,1.23,1.6-2.43,1.13-5.45,1.13A12.72,12.72,0,0,0,109.14,25.09Z"/><path class="cls-26" d="M122.08,19.81a6.21,6.21,0,0,1-1.12.32,10.76,10.76,0,0,1-1.17.18c-.43.05-.88,0-1.34.06s-.92,0-1.34-.08a10.11,10.11,0,0,1-1.17-.23,6.37,6.37,0,0,1-1.1-.36,8.76,8.76,0,0,1,1.15-.19c.34,0,.73-.06,1.15-.06s.87,0,1.32,0a19.27,19.27,0,0,1,2.47.18C121.61,19.69,122.08,19.82,122.08,19.81Z"/><path class="cls-26" d="M117.74,22.88a3.34,3.34,0,0,1-.72.3,3.11,3.11,0,0,1-.74.16,8.3,8.3,0,0,1-.87.05,6.4,6.4,0,0,1-1.63-.23,3.64,3.64,0,0,1-.73-.28,3.57,3.57,0,0,1,.74-.27,6.91,6.91,0,0,1,1.6-.18,9.19,9.19,0,0,1,1.61.2A3.61,3.61,0,0,1,117.74,22.88Z"/><path class="cls-26" d="M116.73,25.81a8,8,0,0,1-1.21.27,15.73,15.73,0,0,1-2.65.21,16.91,16.91,0,0,1-2.64-.2,8.66,8.66,0,0,1-1.21-.28,8,8,0,0,1,1.21-.27,16.82,16.82,0,0,1,2.64-.21,18.14,18.14,0,0,1,2.65.21A8,8,0,0,1,116.73,25.81Z"/><path class="cls-26" d="M112,29a2.22,2.22,0,0,1-.55.27,4.16,4.16,0,0,1-1.23.21,3.76,3.76,0,0,1-1.23-.21,2.18,2.18,0,0,1-.56-.27,2.4,2.4,0,0,1,.56-.28,3.77,3.77,0,0,1,1.23-.2,3.6,3.6,0,0,1,1.23.21A2.22,2.22,0,0,1,112,29Z"/><polygon class="cls-27" points="99.97 19.11 101.24 23.04 105.37 23.04 102.03 25.46 103.31 29.39 99.97 26.97 96.63 29.39 97.9 25.46 94.56 23.04 98.69 23.04 99.97 19.11"/><polygon class="cls-18" points="99.97 19.27 101.16 22.95 105.03 22.95 101.9 25.22 103.09 28.89 99.97 26.62 96.84 28.89 98.03 25.22 94.91 22.95 98.77 22.95 99.97 19.27"/><path class="cls-28" d="M109,25.09c6.11-.93,4.27-7.33,8.75-7.33H130s7.62.4,7.62-1.39-13.21-3-19.6-3-6.94.52-6.94,4.19-1.89,4.2-1.89,4.2C109.19,22.88,109.14,24,109,25.09Zm2.91-8.2c.23-2.84,1-3,6.93-3s17.65,1.29,17.65,2.4c0,1.47-12.69.72-18.53.72-3,0-3.55,1-4.74,3.91S111.72,19.72,112,16.89Z"/><path class="cls-28" d="M107,31.75c3,0,5.45-.1,5.45-1.13s-1.24-1.6-1.24-1.6,6.55-.08,6.55-1.32c0-1-2.28-1.83-2.28-1.83s6.19-.2,6.23-1-5.31-1.92-5.31-1.92,9.42-.16,9.38-1.15-6.59-1.88-6.59-1.88,8.3-.12,9.54-.56A1.91,1.91,0,0,0,130,17.76H117.79c-4.48,0-2.64,6.4-8.75,7.33A12.81,12.81,0,0,1,107,31.75Zm9.52-12.54S116.87,18,119,18c4.72,0,10.3,0,10.3.62S124.9,19.21,116.49,19.21Zm-2,2.77a1.4,1.4,0,0,1,1.18-1.6s8.71.44,9,1.2S116.13,22.42,114.53,22Zm-3.33,2.87a9.47,9.47,0,0,0,1.58-1.32s8,0,8,1.23S110.62,25.15,111.2,24.85Zm-2.28,3.54a4.78,4.78,0,0,0,.42-1.86s7.83-.15,7.83.91C117.17,28.26,112.66,28.63,108.92,28.39Z"/><path class="cls-28" d="M90.71,21.72s-1.89-.52-1.89-4.2-.56-4.19-6.95-4.19-19.6,1.24-19.6,3,7.63,1.39,7.63,1.39H82.13c4.48,0,2.63,6.4,8.74,7.33C90.77,24,90.72,22.88,90.71,21.72Zm-4-.84C85.46,17.93,84.94,17,81.91,17c-5.83,0-18.52.75-18.52-.72,0-1.11,11.73-2.4,17.64-2.4s6.71.2,6.94,3S87.86,23.82,86.66,20.88Z"/><path class="cls-28" d="M90.87,25.09c-6.11-.93-4.26-7.33-8.74-7.33H69.9a1.91,1.91,0,0,0,1.31,1.56c1.24.44,9.54.56,9.54.56s-6.54.88-6.58,1.88,9.38,1.15,9.38,1.15S78.2,24,78.24,24.83s6.23,1,6.23,1-2.28.79-2.28,1.83c0,1.24,6.55,1.32,6.55,1.32s-1.24.56-1.24,1.6,2.44,1.13,5.45,1.13A12.81,12.81,0,0,1,90.87,25.09ZM70.57,18.6c0-.66,5.58-.62,10.3-.62,2.18,0,2.56,1.23,2.56,1.23C75,19.21,70.57,19.28,70.57,18.6Zm4.67,3c.26-.76,9-1.2,9-1.2A1.4,1.4,0,0,1,85.38,22C83.79,22.42,75,22.33,75.24,21.58Zm3.86,3.18c0-1.23,8-1.23,8-1.23a9.47,9.47,0,0,0,1.58,1.32C89.3,25.15,79.1,26,79.1,24.76Zm3.65,2.68c0-1.06,7.83-.91,7.83-.91A4.86,4.86,0,0,0,91,28.39C87.26,28.63,82.75,28.26,82.75,27.44Z"/></g></g></g></svg>