<svg xmlns="http://www.w3.org/2000/svg" viewBox="0 0 236.91 141.31"><defs><style>.cls-1,.cls-5{fill:#424143;}.cls-2,.cls-3{fill:#355daa;}.cls-3{font-size:12.49px;}.cls-3,.cls-5{font-family:ArialNarrow-Bold, Arial;font-weight:700;}.cls-4{letter-spacing:-0.04em;}.cls-5{font-size:24.68px;}.cls-6{fill:#365eaa;}</style></defs><title>Asset 821px</title><g id="Layer_2" data-name="Layer 2"><g id="Layer_1-2" data-name="Layer 1"><path class="cls-1" d="M122.22,125.82V79H113.6V69.79h29.53V79h-8.51v46.87Z"/><path class="cls-1" d="M162.8,126.6q-8,0-11.88-4.25t-4.2-13.53l10.61-1.62c0,3.51.47,6.06,1.27,7.65a3.82,3.82,0,0,0,3.59,2.38q3.15,0,3.15-4a10.55,10.55,0,0,0-.81-4.17,12.11,12.11,0,0,0-2-3.27,32.69,32.69,0,0,0-3.31-3.17l-5-4.29a40.25,40.25,0,0,1-3-2.84A22.62,22.62,0,0,1,149,92.38a13.34,13.34,0,0,1-1.67-3.94,19.64,19.64,0,0,1-.54-4.76q0-7,4.19-10.82T162.43,69a17.86,17.86,0,0,1,4.55.54A12.58,12.58,0,0,1,170.42,71a9.83,9.83,0,0,1,2.47,2.22,13.85,13.85,0,0,1,1.69,2.66,16.84,16.84,0,0,1,1,3,23,23,0,0,1,.57,3.06c.1.92.18,1.92.22,3l-10.71,1.39c0-1-.05-1.73-.09-2.35s-.09-1.28-.18-2a8.66,8.66,0,0,0-.37-1.69,5.43,5.43,0,0,0-.63-1.19,2.11,2.11,0,0,0-1-.8,3.37,3.37,0,0,0-1.4-.2,2.84,2.84,0,0,0-2.48,1.37,5.34,5.34,0,0,0-.87,3,10.05,10.05,0,0,0,.39,2.89,7.61,7.61,0,0,0,1.35,2.51A22.13,22.13,0,0,0,162,89.66c.4.4,1.08,1,2,1.89l4.77,4.19a43,43,0,0,1,3.38,3.36,29,29,0,0,1,2.7,3.65,16.47,16.47,0,0,1,1.94,4.5,20.08,20.08,0,0,1,.66,5.25,13.59,13.59,0,0,1-4.05,10.09A14.51,14.51,0,0,1,162.8,126.6Z"/><path class="cls-1" d="M199.12,125.82l-6.76-56h7.71l6.11,32.54,4.29-32.54h8.18l4.5,32.37,3.38-32.37H236.9l-6.79,56H219.36L214.6,92,210,125.82Z"/><path class="cls-2" d="M194.92,69.79h-14l-10.61,56H182l1-6.17v-.1l2.65-17.9v-.1L188,84.83l2.14,15.43L193,119.65l1,6.17h11.43Z"/><text class="cls-3" transform="translate(113.59 137.48) scale(1.07 1)"><tspan class="cls-4">T</tspan><tspan x="5.69" y="0">ransforming Humanity</tspan></text><text class="cls-5" transform="translate(167.21 66.06)">Drones</text><path class="cls-6" d="M162.51,36.69c-1.22-.75-44.95-2.78-62.65-3.58a36.51,36.51,0,0,0,.65-4.95c.11-2.94.09-5.41-1.44-5.41s-2.71,2.94-2.77,4.71-.13,3.41-.13,3.41l-2.06,2-1.59-.07s.9-17.25,1.23-21.8c.19-2.65-3.42-3.19-6.45-3.17a2.86,2.86,0,0,0,.32-1c4,.38,10.26.73,11.26-.69,1.49-2.12.24-3.17-2.46-4.94-2-1.28-7.72.9-10.7,2.18a1.37,1.37,0,0,0-.65-.63,1.15,1.15,0,0,0,.28-.69,1,1,0,0,0-.67-1,.67.67,0,0,0,.1-.34.7.7,0,0,0-.7-.73h-1a.77.77,0,0,0-.76.73.66.66,0,0,0,.08.34,1.15,1.15,0,0,0-.75,1,1.1,1.1,0,0,0,.22.69,1.56,1.56,0,0,0-.69.63C78.29,2.13,72.7,0,70.63,1.24,67.8,3,66.46,4.06,67.8,6.18,68.69,7.59,75,7.25,79,6.86a2.35,2.35,0,0,0,.24,1c-3,0-6.68.52-6.69,3.18,0,4.55-.44,21.8-.44,21.8l-1.59.07-1.91-2s.06-1.65.13-3.41-.88-4.71-2.41-4.71-1.74,2.47-1.85,5.41a34.47,34.47,0,0,0,.27,4.95C47,33.93,3.11,36,1.83,36.74.22,37.68-.5,52.42.38,54.14s9.13,3.13,9.13,3.13l.08-2,10.63,1.09L22,59.15l50.69,8S73,73.33,74.27,83s4.23,49.21,4.24,49.38h0c0-.17,6-39.76,8-49.39s2.81-15.83,2.81-15.83l51.3-8,2-2.82,10.71-1.1-.08,2s8.37-1.41,9.38-3.14S164,37.63,162.51,36.69Z"/><path class="cls-6" d="M75.4,110.61l-28.21,4.51-.46,12,28.87,2s.48-1,1.08-2.13C76.36,122.8,75.9,116.86,75.4,110.61Z"/><path class="cls-6" d="M80.76,126.92c.51,1.1.91,2.14.91,2.14l29-2,.46-12-27.86-4.49C82.3,116.86,81.39,122.8,80.76,126.92Z"/></g></g></svg>