<svg xmlns="http://www.w3.org/2000/svg" viewBox="0 0 408.44 99"><defs><style>.cls-1{fill:#2e5baa;}.cls-2{fill:#fff;}.cls-3{font-size:40px;font-family:SourceSansPro-Regular, SourceSansPro Regular;}</style></defs><title>Asset 161px</title><g id="Layer_2" data-name="Layer 2"><g id="Layer_1-2" data-name="Layer 1"><circle class="cls-1" cx="49.5" cy="49.5" r="49.5"/><path class="cls-2" d="M70.87,23.58,64.9,20A135.25,135.25,0,0,1,54.74,35.47l6.08,4.75a3.66,3.66,0,0,1,.61,5.17A142.36,142.36,0,0,1,46,61.87a3.65,3.65,0,0,1-5.19-.28l-5.14-5.76A133.69,133.69,0,0,1,20.84,67l4,5.73c5.12,7.65,16.4,9.42,24.26,2.87a153.76,153.76,0,0,0,26.21-28C81.34,39.33,78.84,28.19,70.87,23.58Z"/><path class="cls-2" d="M55,33a132.18,132.18,0,0,0,7.71-11.76A3.94,3.94,0,0,1,68.11,20h0a4.17,4.17,0,0,1,1.52,5.65A142.57,142.57,0,0,1,61.51,38a3.92,3.92,0,0,1-5.65.66h0A4.16,4.16,0,0,1,55,33Z"/><path class="cls-2" d="M22,64.67a132.93,132.93,0,0,0,11.23-8.46,4.14,4.14,0,0,1,5.68.53h0a3.9,3.9,0,0,1-.29,5.68A139.61,139.61,0,0,1,26.8,71.33a4.16,4.16,0,0,1-5.73-1.16h0A3.93,3.93,0,0,1,22,64.67Z"/><text class="cls-3" transform="translate(133.36 36.76)">Need Help?<tspan x="0" y="48">Contact Support</tspan></text></g></g></svg>