<svg xmlns="http://www.w3.org/2000/svg" viewBox="0 0 232.52 340.41"><defs><style>.cls-1{fill:#355daa;}</style></defs><title>Asset 11px</title><g id="Layer_2" data-name="Layer 2"><g id="Layer_1-2" data-name="Layer 1"><path class="cls-1" d="M99.27,177.73c3.39-4.39,5.51-10.23,7.23-15.47A70,70,0,0,0,110,145c.37-5.48.08-11,.88-16.45a33.31,33.31,0,0,1,2-8c1-2.27,2.55-4.16,3.51-6.38.05-.11-.06-.26-.18-.18a12.09,12.09,0,0,0-3.77,5c-2.35,3-3,7.87-3.86,11.23A56.76,56.76,0,0,0,107,143.89v0c0,.37-.06.74-.08,1.12a.15.15,0,0,0-.08.16c0,.12,0,.25,0,.37v.21l0,.1c0,.22,0,.43,0,.65a49.21,49.21,0,0,0-.81,8c-.3,2.35-.61,4.71-1.07,7a13.87,13.87,0,0,0-.48,2.1c-.26,1-.47,2.07-.69,3.11s-.64,1.95-1,2.94c-1.2,2.62-2.62,5.17-3.64,7.86C99,177.7,99.18,177.86,99.27,177.73Z"/><polygon class="cls-1" points="175.44 127.75 175.44 127.75 175.44 127.75 175.44 127.75"/><polygon class="cls-1" points="210.42 33.59 210.42 33.58 210.41 33.56 210.42 33.59"/><path class="cls-1" d="M209.76,34l-.09.11,0,0,.07,0A.39.39,0,0,0,209.76,34Z"/><path class="cls-1" d="M171,111.89l-.2.16v.16l.19,0s.06,0,.11-.06a.78.78,0,0,1,0-.26Z"/><path class="cls-1" d="M107.22,118.86l.22,0a1.25,1.25,0,0,0,.77.07H108c.52-.13.21-.09.32-.2s.71-.35.2-.39A39.21,39.21,0,0,1,113,107c5.33-8.49,14.24-13.52,23.12-18.07,4.44-2.28,9-4.44,13.42-6.88a100.46,100.46,0,0,0,15.66-10.89c4.82-4,10.44-7.94,14.43-13.06,3.74-4.81,6.61-10.33,9.48-15.57a79.77,79.77,0,0,0,7.23-17.15c1.33-4.83,1.09-15.29.77-20.28,1,2.13,2.17,6.56,3,8.73l-.2,0h0a5.33,5.33,0,0,0,.27.92,69.21,69.21,0,0,1,1.45,15,62.89,62.89,0,0,1-6,22.88c-3.38,7.36-5.08,11.69-10.15,18-2.38,3-5.12,5.53-7.58,8.54-3,3.62-5.36,7.87-8.75,10.47h0l0,.19.05.06c-.39.22-.25.28-.3.47s-.09.18,0,.63l.17,0,.13-.19h0c0,.26,0,.51.23.66a.67.67,0,0,0,.64.18h0l-.13,0-.18,0a1.51,1.51,0,0,0,.54-.15c.34-.27.72-.51,1-.79.07,0,.22-.14.3-.16l.05-.29c.08,0,.16.15.23.12a89.87,89.87,0,0,0,15.24-10.69c4.88-4.12,6.2-6,9.67-11.37,3-4.55,6.26-9.36,8.94-14.48a57.86,57.86,0,0,0,4.71-12.49,54.24,54.24,0,0,1-1.45,16.94,83.83,83.83,0,0,1-7.58,20,88,88,0,0,1-12.89,17.2c-4.79,5.12-11.46,11.93-17,16.08h0c-.06,0-.08.19-.12.23s-.29.28-.42.39c.07.18.22.15.22.28h0a.7.7,0,0,0,.23.59l-.14.07h0v0h0a.67.67,0,0,0,.48.31,2,2,0,0,0,.56.19h0c.07,0,.13-.2.2-.23.37-.19.73-.48,1.09-.7,10-4.17,21.68-11.82,29-19.82a55.59,55.59,0,0,0,9-14.23c1.23-2.63,3.41-7,4.61-9.62.17-.39.36-.78.56-1.17-.5,4.18-1.71,10.07-2.52,14.08a47.14,47.14,0,0,1-7.13,17.75,92.57,92.57,0,0,1-29,26.64c-.76.34-1.5.71-2.26,1.06a1.12,1.12,0,0,0-.46.5c-.1.17-.13.12-.06.57l.2,0s.35-.06.35.07h0c0,.17-.19.45-.06.57l-.3.14c.1.11.24.4.4.48s.56.4.82.35h0c.06,0,.06-.32.13-.35,9.62-4.12,20.26-8.42,28.77-14.93,6.11-4.68,12.21-12.37,17.29-18-2.44,8.58-9.11,17.43-15.76,23.56-8.87,8.18-16.8,16.41-27.05,22.55a1.68,1.68,0,0,0-.52.19c-.12.08-.19.19-.25.21h0l0,.08-.09.11c-.06.05-.21.15-.27.21s-.44.14-.48.22-.52.21-.52.31h0c0,.15.54.14.8.55l.45-.11.24-.12,0,.07-.09,0c.05,0,0,.06.13.11s.13,0,.22,0l.18.25h.17l.05.07h0c11.64-5.22,20.66-15.14,29.53-23.83a67.14,67.14,0,0,0,10.26-12.84l-.18-.12.22.11c2.19-3.6,5.46-9.78,5.29-14.36.15-.16.48-.38.48-.49h0c0-.08.25-.26.29-.41s-.1-.32-.13-.45h-.16c.52-.42-.22-.35-.47-.75v0l.12.12c-.18-.12-.19-.13-.64,0v.16l-.19,0v0l.17-.08c-.13,0-.28,0-.39.11a1.14,1.14,0,0,0-.11.11l-.15,0h0c-.13,0-.21.08-.32.19a.88.88,0,0,0-.14.43c-6.57,5.91-12.54,14.89-19.5,20a82.84,82.84,0,0,1-14.82,8.36c1.68-1.31,3.32-2.69,4.9-4.13A92.76,92.76,0,0,0,209,100.85a48.88,48.88,0,0,0,7.18-17.29c1.3-6.26,3.42-14.88,3.3-21.36,0-.07.05-.14.08-.22a.78.78,0,0,0,0-.4.7.7,0,0,0-.27-.39l0,0a.71.71,0,0,0-.58-.1.63.63,0,0,0-.32.19l-.21.22-.07.06h.07a.17.17,0,0,0,0,.15h0a40.36,40.36,0,0,0-4.77,7.64c-1,2.16-1.95,4.38-2.87,6.31-2.43,5.1-5,10.22-8.54,14.54-5.78,7-14.64,13.22-22.51,17.41.61-.63,1.21-1.24,1.79-1.8,2.56-2.47,6.64-6.32,9.07-8.94A86.38,86.38,0,0,0,203.74,78.6a85.4,85.4,0,0,0,7.76-21.36c1.34-6.26,2.09-14.33.45-20.57h0l-.05-.08c-.16-.63-.3-1.16-.51-1.77,0-.2.07-.33.08-.54v-.09h.27v0h0l-.08-.23a1,1,0,0,0-.51-.46c-.17-.08-.65,0-.65,0v.07h-.07l0,.05a.51.51,0,0,0-.31.13c-.06.07-.13.07-.16.14s.24,0-.19.19h0l0,0a2.11,2.11,0,0,1-.19.49h0c.11.52.1.42.14.61-1.8,11.82-8.54,22.35-14.93,32.49a35.21,35.21,0,0,1-9.52,10.74c-2.72,2.21-5.65,4.15-8.59,6.14,1-1.35,2-2.7,3.07-3.93,2.62-3.07,5.56-6,8.11-9.24,5.26-6.69,7.53-11.44,10.9-19.3,4.53-10.57,6.36-27.27,4.28-39h-.52C202,9.28,199.06,3.48,196.72.28h.07c-.12-.11-.52-.13-.52-.21h0l-.18.07-.09,0,.11,0c0-.09-.3-.06-.44,0h0l.05,0a.74.74,0,0,0-.43.35.7.7,0,0,0-.07.65V1h0v0h0v0c0,.19-.29.23-.21.65l-.09,0c.31,4.21.71,10.8-.11,15-1.29,6.57-3.27,16.12-6.34,22.08a130.27,130.27,0,0,1-9.41,16.28c-3.88,5.4-9.47,9.44-14.64,13.83a92.84,92.84,0,0,1-16.35,11.59c-5.91,3.14-12.78,6.2-19.2,9.9s-12.43,8-16.56,13.83a29.24,29.24,0,0,0-5.3,13.44l-.28,0-.35.29h0l.6.43h0a3.66,3.66,0,0,0-.56-.1h0C106.39,118.62,107,118.76,107.22,118.86Zm62.55-27.29Zm9.73,51.73ZM196.59.31l.1,0-.16.06Z"/><polygon class="cls-1" points="175.94 127.29 175.94 127.29 175.94 127.29 175.94 127.29"/><polygon class="cls-1" points="169.3 91.52 169.3 91.52 169.3 91.52 169.3 91.52"/><polygon class="cls-1" points="108.57 118.66 108.57 118.66 108.57 118.66 108.57 118.66"/><polygon class="cls-1" points="168.86 90.35 168.86 90.35 168.86 90.35 168.86 90.35"/><polygon class="cls-1" points="210.1 33.67 210.1 33.67 210.1 33.67 210.1 33.67"/><path class="cls-1" d="M224.57,110.71a.57.57,0,0,0,0-.26.54.54,0,0,0-.34-.29.61.61,0,0,0-.4,0,.54.54,0,0,0-.32.35c-1.82,5.4-3.88,11.69-6.94,16.53a63.65,63.65,0,0,1-10.17,12.33c-7.89,7.45-17.23,13.22-26.25,18.78h0s-.28.2-.3.27-.16.23-.14.29a.54.54,0,0,0,.15.22c.07.05.21.19.29.15l0,.17h0a98.38,98.38,0,0,0,27.75-18.92,65,65,0,0,0,10.66-13.57C221.13,122.38,224.11,115.9,224.57,110.71Z"/><path class="cls-1" d="M209.91,153.76a8.57,8.57,0,0,0,1.63-2.46,2.82,2.82,0,0,0,.07-2.17A2,2,0,0,0,210.5,148a3.36,3.36,0,0,0-1.51-.21,8.24,8.24,0,0,0-2.75.69v0h0a.66.66,0,0,0-.37.38.64.64,0,0,0,0,.49.66.66,0,0,0,.23.3.69.69,0,0,0,.39.1l.45,0,.66-.05a7.93,7.93,0,0,1,1.47,0,1.64,1.64,0,0,1,.61.18c.05,0,.06.05.06.06s0,0,0,.12a7.64,7.64,0,0,1-1.59,2.52,48,48,0,0,1-6,5.38c-2.55,2-5.09,4.1-7.76,6-2.51,1.76-5.34,3.18-7.86,5.07h0a.69.69,0,0,0-.27.4.73.73,0,0,0,0,.44.7.7,0,0,0,.32.36.75.75,0,0,0,.51.06,13.47,13.47,0,0,0,2.1-.67c3.57-1.44,6.81-4.17,9.65-6.36a100.56,100.56,0,0,0,9.34-7.62C208.57,155.13,209.26,154.5,209.91,153.76Z"/><polygon class="cls-1" points="203.01 165.09 203.01 165.09 203.01 165.09 203.01 165.09"/><path class="cls-1" d="M203,173.5a10.69,10.69,0,0,0,2.74-3.12,2.46,2.46,0,0,0,.19-2,1.76,1.76,0,0,0-.76-.86,2.36,2.36,0,0,0-1.27-.27.71.71,0,0,0-.2,0,.56.56,0,0,0-.32.34.58.58,0,0,0,0,.43.67.67,0,0,0,.24.29,1.43,1.43,0,0,1,.61.62.66.66,0,0,1,0,.48,2.09,2.09,0,0,1-.35.65,11.3,11.3,0,0,1-1.43,1.42,54.16,54.16,0,0,1-6.93,5c-2.56,1.63-5.16,3.19-7.82,4.65-.64.35-1.39.69-2.12,1.07a9.44,9.44,0,0,0-2.08,1.39h0a.65.65,0,0,0-.2.37.56.56,0,0,0,0,.37.7.7,0,0,0,.24.32.73.73,0,0,0,.43.13,5.37,5.37,0,0,0,1.84-.44,15.53,15.53,0,0,0,2.38-1.27c.76-.47,1.46-.94,2-1.27a107.16,107.16,0,0,0,9.47-5.94C200.7,175.19,201.88,174.4,203,173.5Z"/><path class="cls-1" d="M196.28,189.41a13.51,13.51,0,0,0,1-1.65,7.73,7.73,0,0,0,.72-1.82,2,2,0,0,0,0-1.13,1,1,0,0,0-.38-.48,1.21,1.21,0,0,0-.61-.21,3.75,3.75,0,0,0-1.61.35l-.34.14a.47.47,0,0,0-.25.56v0a.46.46,0,0,0,.56.31,3,3,0,0,1,.85-.14.6.6,0,0,1,.3.07l0,.06a1,1,0,0,1,0,.49,4,4,0,0,1-.34.86,8.68,8.68,0,0,1-1.07,1.63,11.32,11.32,0,0,1-4.26,3.12l0,0c-2.48,1-5,1.08-7.75,1.67l-.13,0a.63.63,0,0,0-.37.4.69.69,0,0,0,0,.47.65.65,0,0,0,.18.25.63.63,0,0,0,.31.14,15,15,0,0,0,7.57-1.1A12.94,12.94,0,0,0,196.28,189.41Z"/><polygon class="cls-1" points="182.89 190.31 182.89 190.31 182.9 190.31 182.89 190.31"/><polygon class="cls-1" points="190.91 191.19 190.91 191.19 190.91 191.19 190.91 191.19"/><path class="cls-1" d="M191.67,200.2a.85.85,0,0,0,.16-.44.88.88,0,0,0-.06-.45.8.8,0,0,0-.3-.37.81.81,0,0,0-.53-.1l-.8.14c-.25.06-.47.11-.67.18h-.19l-.19,0a.4.4,0,0,0-.26.14l-.07.08a.48.48,0,0,0-.12.22v0a.7.7,0,0,0,.2.64,1.55,1.55,0,0,0,.33.24,19.34,19.34,0,0,1-6.27,4c-2.1.85-4.42.93-6.54,2-.05,0-.13-.15-.18-.13s-.34,0-.41.18a.67.67,0,0,0,0,.54.66.66,0,0,0,.2.27.6.6,0,0,0,.3.12,13.21,13.21,0,0,0,6.87-1A21,21,0,0,0,191.67,200.2Z"/><polygon class="cls-1" points="177.43 216.3 177.43 216.3 177.43 216.3 177.43 216.3"/><path class="cls-1" d="M178.93,215.63a13.83,13.83,0,0,0,1.61-.87,8.89,8.89,0,0,0,1.75-1.4,2.51,2.51,0,0,0,.67-1.18,1.35,1.35,0,0,0-.07-.79,1.56,1.56,0,0,0-.53-.68,3.38,3.38,0,0,0-.91-.49.61.61,0,0,0-.42,0,.51.51,0,0,0-.29.27.54.54,0,0,0,0,.45,1,1,0,0,0,.11.17,1.42,1.42,0,0,1,.32.48.76.76,0,0,1,0,.61,2.12,2.12,0,0,1-.56.68,9.43,9.43,0,0,1-2.4,1.31c-1.19.48-2.4.82-3,1-1.56.48-3.13.91-4.72,1.24-.27.06-.65.09-1.06.14a4.79,4.79,0,0,0-1.22.28,2,2,0,0,0-.45.24h0a.68.68,0,0,0-.25.82.69.69,0,0,0,.29.34,2.23,2.23,0,0,0,1.19.25,5.54,5.54,0,0,0,1.27-.17c.85-.18,1.68-.47,2.14-.59A43.4,43.4,0,0,0,178.1,216Z"/><path class="cls-1" d="M157.15,229.55a.64.64,0,0,0,.24.28.57.57,0,0,0,.39.09,10.16,10.16,0,0,0,2.66-.73,26.06,26.06,0,0,0,2.64-1.27,10.11,10.11,0,0,0,2-1.35,4.74,4.74,0,0,0,1.41-2.1.53.53,0,0,0,0-.35.5.5,0,0,0-.33-.3.56.56,0,0,0-.36,0,.59.59,0,0,0-.23.19,9.22,9.22,0,0,1-4.31,3.17l-.28.11c-.69.26-1.52.47-2.32.79a5.72,5.72,0,0,0-1.28.7h0a.57.57,0,0,0-.24.36A.69.69,0,0,0,157.15,229.55Z"/><path class="cls-1" d="M84.82,183.93a.65.65,0,0,0,.15-.1,10.27,10.27,0,0,0,.81-.91,2.23,2.23,0,0,1,.7-.63.31.31,0,0,1,.31,0,1.36,1.36,0,0,1,.44.62c.07.13.12.27.18.4a15.57,15.57,0,0,1,.88,3.83,22.67,22.67,0,0,1,0,8.13.52.52,0,0,0,0,.28v0a.35.35,0,0,0,0,.34.33.33,0,0,0,.17.18.34.34,0,0,0,.28,0l0,0c4.69-2.83,8.47-7.68,11.43-12.16s6.56-10.09,7.79-15.61a.35.35,0,0,0,0-.2.32.32,0,0,0-.19-.19.31.31,0,0,0-.25,0,.33.33,0,0,0-.16.13c-1.57,2.34-2.61,5-3.92,7.47a78.36,78.36,0,0,1-4.18,7c-2.85,4.18-6.31,7.67-9.6,11.46a22.38,22.38,0,0,0-.7-10.15c-.11-.35-.23-.76-.39-1.16a4.13,4.13,0,0,0-.64-1.14,2.08,2.08,0,0,0-1.1-.71,1.42,1.42,0,0,0-.89.07A2.82,2.82,0,0,0,84.75,182a3.9,3.9,0,0,0-.58,1.38.61.61,0,0,0,0,.27A.48.48,0,0,0,84.82,183.93Z"/><path class="cls-1" d="M79.09,177.14a.43.43,0,0,0,.3.09l.06.25h0c.14,0,.23-.32.35-.37.33-.13.57-.42.81-.42a.84.84,0,0,1,.6.26,2.15,2.15,0,0,1,.37.59,5.44,5.44,0,0,1,.19.57,13.17,13.17,0,0,1,.59,2.59c.33,1.83.13,3.79.65,5.7h0l.22,0c0,.09.32.09.4.11a.33.33,0,0,0,.22,0,.28.28,0,0,0,.13-.11.32.32,0,0,0,.07-.19,24,24,0,0,0-1.24-8.26c0-.06,0-.11-.07-.17a4.72,4.72,0,0,0-.78-1.26,2.45,2.45,0,0,0-1.17-.78,1.43,1.43,0,0,0-.93.06,2.32,2.32,0,0,0-.89.72.43.43,0,0,0,0,.42A.45.45,0,0,0,79.09,177.14Z"/><path class="cls-1" d="M.28,131.25a44.12,44.12,0,0,1,7.2,4.82,25.13,25.13,0,0,1,3,2.77c.52.59.83,1.35,1.34,2,0,.12,0,.25,0,.38a.94.94,0,0,0,0,.16.47.47,0,0,0,.28.27.52.52,0,0,0,.37,0,.55.55,0,0,0,.3-.33c1.35-4.16.74-9.56-.15-13.71a46.19,46.19,0,0,0-2-6.39,29.78,29.78,0,0,0-2.6-5c4.78,3.14,8.54,9.09,11.16,14.17a51.22,51.22,0,0,1,2.13,4.72c.94,2.34,1.79,4.73,2.74,7.07.5,1.27,1,2.52,1.64,3.75,0,.16-.07.33-.1.5a.39.39,0,0,0,0,.24.43.43,0,0,0,.23.23.36.36,0,0,0,.32,0h0a.32.32,0,0,0,.17.12.37.37,0,0,0,.21,0,.29.29,0,0,0,.15-.12.27.27,0,0,0,.05-.23c0-.18-.06-.36-.1-.54,3.61-7.31,2.44-17.08,0-24.44-.4-1.19-.83-2.36-1.3-3.52a69.58,69.58,0,0,0-4-8.3A110.26,110.26,0,0,0,15,99.9c1.14.87,2.3,1.71,3.32,2.65,1.89,1.72,4.94,5.19,6.59,7.12a65.41,65.41,0,0,1,8.66,13c.91,1.84,1.83,3.67,2.59,5.55A128.31,128.31,0,0,1,43,152.29h0l-.1.1c0,.1,0,.19.07.24s0,.14,0,.22h0c0,.05,0,.14,0,.18s.08.26.19.31a.48.48,0,0,0,.39,0,.42.42,0,0,0,.24-.25c1.74-4.49,1.4-10.53.94-15.15a39.1,39.1,0,0,0-2.28-10.57c-.24-.59-.5-1.17-.79-1.74,2.53,2.25,4.85,4.29,6.47,7.41a34.57,34.57,0,0,1,1.55,3.39,61.31,61.31,0,0,1,2.07,6.13c.93,3.17,1.79,6.52,3,9.67a26.09,26.09,0,0,0,3.61,6.43.52.52,0,0,0,0,.48.48.48,0,0,0,.21.24.41.41,0,0,0,.36,0l0,0s.08.08.14.09a.16.16,0,0,0,.12,0c.08,0,0-.07.06-.14s-.17-.14-.21-.24h-.48c2.08-1.12,1.92-2.23,2.26-3.48,0-.09.53-.38.61-.71s.17-.74.29-1.17a13.55,13.55,0,0,1,.76-2.35,1.12,1.12,0,0,1,.13-.21,9.92,9.92,0,0,1,2.18,3.34,23.42,23.42,0,0,1,1.26,6.54,24.33,24.33,0,0,0,1.31,6.74l0,.09c-.05.25-.09.49-.13.73a.52.52,0,0,0,0,.25.51.51,0,0,0,.23.25.43.43,0,0,0,.37,0,.41.41,0,0,0,.17-.13,8.37,8.37,0,0,0,1.41-3.55c.08-.33.16-.73.26-1.12a3.86,3.86,0,0,1,.4-1,.7.7,0,0,1,.31-.31.43.43,0,0,1,.33,0,1.83,1.83,0,0,1,.6.46,12.54,12.54,0,0,1,2.59,4,25.24,25.24,0,0,1,1.44,8,.33.33,0,0,0,0,.15.44.44,0,0,0,.28.27.5.5,0,0,0,.36,0,.45.45,0,0,0,.27-.35,16.66,16.66,0,0,0-1-8.12c-.08-.21-.16-.44-.26-.68a15.12,15.12,0,0,0-1.5-2.9,5.86,5.86,0,0,0-2.34-2.15,1.68,1.68,0,0,0-1.32-.1,2.21,2.21,0,0,0-1.07,1.22,22.2,22.2,0,0,0-1.1,3.4c-.59-3.38-.18-7-1.3-10.39-.18-.55-.41-1.22-.7-1.93a13.05,13.05,0,0,0-1.19-2.36,4.57,4.57,0,0,0-1.75-1.67.93.93,0,0,0-.76-.05,1.13,1.13,0,0,0-.49.4,2.8,2.8,0,0,0-.32.56,6.87,6.87,0,0,0-.33,1,21.07,21.07,0,0,1-2.07,6.06,37.15,37.15,0,0,1-2.54-5.19c-1.76-4.37-2.86-9-4.37-13.6-.36-1.09-.76-2.22-1.22-3.35C48.8,131,45.87,126,41.08,123.87a.46.46,0,0,0-.38,0,.49.49,0,0,0-.26.23.46.46,0,0,0,0,.33.48.48,0,0,0-.09.11.38.38,0,0,0,0,.33,48.09,48.09,0,0,1,3,14,62.17,62.17,0,0,1,0,7.6c-.06.79-.15,1.58-.23,2.39a95.26,95.26,0,0,0-5.56-20.35c-.89-2.22-1.87-4.4-3-6.51a65.38,65.38,0,0,0-8.79-13.24c-3.23-3.7-8.5-10-13.1-12.09a.51.51,0,0,0-.4,0,.53.53,0,0,0-.26.25.5.5,0,0,0,0,.38.43.43,0,0,0,.13.17c.09.08.21.15.3.23s.1.16.1.16l.24-.06v0c1.44,3.73,5.3,8.61,7.24,12.06a73.48,73.48,0,0,1,4.07,8.78c.38.92.72,1.85,1,2.79a41.07,41.07,0,0,1,2.33,12.19,46,46,0,0,1-1.31,10.16,51.9,51.9,0,0,0-2.06-6.21,83.87,83.87,0,0,0-4.38-9.13c-3-5.5-7.34-11.81-13.14-14.69a1.41,1.41,0,0,0-.43-.13v.18h0s-.35.26-.41.4-.18.36-.11.53a.61.61,0,0,0,.32.33l.52.28a37.81,37.81,0,0,1,2.78,5.5A41.27,41.27,0,0,1,11.38,128a39.85,39.85,0,0,1,.62,6.89c0,1.3-.14,2.63-.2,4a11.62,11.62,0,0,0-1.37-1.53c-.71-.67-1.42-1.24-1.79-1.56a39.35,39.35,0,0,0-7.86-5.41h0a.54.54,0,0,0-.43,0,.59.59,0,0,0-.3.28A.55.55,0,0,0,0,131,.47.47,0,0,0,.28,131.25Z"/><path class="cls-1" d="M6,113.57H6Z"/><path class="cls-1" d="M30.81,247.11a.11.11,0,0,0,0-.13,3.86,3.86,0,0,0,3.54,1c1.73-.38,3.15-1.81,4.35-3.38l2.49-3.46a23.46,23.46,0,0,1,2.94-3.13l1-.88a38.21,38.21,0,0,1,7.93-4.84c.19-.09,0-.36-.15-.32-4.29,1-7.88,3.65-11,6.67-2.17,2.08-3.51,4.89-5.75,6.92s-5.77,1.37-4.84-2.14a22.44,22.44,0,0,1,3.31-6.66c3.66-5.38,8.81-8.44,14.63-11.25,4.2-2,8.52-3.8,12.88-5.46,3.66-1.39,7.59-2.5,11.08-4.28.22-.12,0-.43-.17-.38-1.48.35-3,.79-4.43,1.28.84-2.48-.44-5.74-1.77-7.73a27.44,27.44,0,0,0-8.4-7.9,42.16,42.16,0,0,0-11.81-4.73c-2.08-.53-4.13-1.06-6.17-1.63,2.64.18,5.29.27,7.94.45a33.39,33.39,0,0,1,13.21,3.19A37.82,37.82,0,0,1,65.39,201a.42.42,0,0,0,.44.06h0l.05,0c.26.2.7-.09.48-.39A11.84,11.84,0,0,0,64.87,199a19.71,19.71,0,0,0-5.8-4.17,59.19,59.19,0,0,0-8.41-3.18c-7-2.2-14.15-3.64-21.14-5.66-6.24-1.81-13.34-4-17.92-8.72a15,15,0,0,1-3.14-4.76,13,13,0,0,1-.84-3.27,24.38,24.38,0,0,1,.77-8.13c1.76-4.18,1.16-10.05.28-14a28.92,28.92,0,0,0-1.34-4.34,15.31,15.31,0,0,0-2.55-4.39,6.14,6.14,0,0,0-4.07-2.25.73.73,0,0,0-.3.05.54.54,0,0,0-.34.41.79.79,0,0,0,0,.48.75.75,0,0,0,.24.32c1,.73,1.94,1.34,2.74,2a8.77,8.77,0,0,1,2.1,2.63A18.6,18.6,0,0,1,6.08,144a23,23,0,0,1,1.41,5.26,29.56,29.56,0,0,1-.12,9.49A19.81,19.81,0,0,0,7,173.38a14.48,14.48,0,0,0,2,3.5c3.9,5,10,7.67,15.77,9.58,6.8,2.23,14.1,3.57,21.13,5.5,2.47.68,4.91,1.44,7.27,2.32-.9-.13-1.79-.23-2.67-.31-3.32-.33-6.67-.39-10-.65-2.65-.21-5.32-.84-8-1l-1.15-.41c-.2-.07-.29.21-.16.34h-.09a.31.31,0,0,0-.13.57,11.55,11.55,0,0,0,4.24,1.46c6.64,2.67,14.26,3.13,20.59,6.59a29.42,29.42,0,0,1,8.61,6.78,10.44,10.44,0,0,1,3.06,9.51c-3.29,1.15-6.55,2.52-9.72,3.76a108.53,108.53,0,0,0-13.57,6.2c-5.6,3.15-9.76,6.84-12.7,12.62-.86,1.7-2.14,4.24-1.4,6.21a3.18,3.18,0,0,0,.64,1l-.1,0c-5,1.3-7.12,8.81-6.31,13.3.05.25.41.2.47,0,.57-2.37.45-4.84,1.3-7.15C27.13,250.38,28.91,249.06,30.81,247.11Z"/><path class="cls-1" d="M84.29,205.48a.38.38,0,0,0-.13.24.39.39,0,0,0,0,.24.54.54,0,0,0,.21.24.52.52,0,0,0,.35,0l1-.36c3.15-1.27,6.25-3.9,8.66-6,2.59-2.25,5.48-5,6.66-8.38a.42.42,0,0,0,0-.27.49.49,0,0,0-.23-.24.44.44,0,0,0-.34,0,.33.33,0,0,0-.16.13,41.52,41.52,0,0,1-7.87,8.7c-2,1.57-4.46,2.81-6.6,4.37a30.16,30.16,0,0,0-.61-10.83l0-.09A.57.57,0,0,0,85,193a.69.69,0,0,0-.34-.09,2.64,2.64,0,0,0-1,.15,2.08,2.08,0,0,0-.72.52,4.61,4.61,0,0,0-.56.83.46.46,0,0,0,0,.41.49.49,0,0,0,.26.27.46.46,0,0,0,.4,0l.07,0a3.9,3.9,0,0,1,.67-.37.6.6,0,0,1,.29-.06.21.21,0,0,1,.16.08.59.59,0,0,1,.11.2,2.1,2.1,0,0,1,.11.39,32.19,32.19,0,0,1,.54,3.89,36.17,36.17,0,0,1-.13,5.89Z"/><path class="cls-1" d="M16.7,162.7a.23.23,0,0,0-.45,0c-.39,9.73,7.71,16,16,19.18a49.61,49.61,0,0,0,11.57,2.53c2.94.37,7,1.15,9.66-.46a.06.06,0,0,0,0-.1C39.51,184.14,18.09,180,16.7,162.7Z"/><path class="cls-1" d="M232.47,214.8a.68.68,0,0,0-.24-.3l-.12-.07a.54.54,0,0,0-.22-.14.5.5,0,0,0-.36,0,.53.53,0,0,0-.22.18,7.94,7.94,0,0,0-1.26.38,25.89,25.89,0,0,0-3.89,2.24,56.76,56.76,0,0,1-7.54,4.18l-1.57.66a177.33,177.33,0,0,1-17.52,5.53,189.93,189.93,0,0,1-21.64,5.12c-3.39.55-6.8,1.09-10.2,1.32-3.12.21-6.5-.12-9.7.39a.7.7,0,0,0-.19.06.83.83,0,0,0-.47.47.88.88,0,0,0,0,.62,1,1,0,0,0,.29.36l.23.1,0,0a13.44,13.44,0,0,0,4.67,2.35c1.3.43,2.61.79,3.82,1.25a13.94,13.94,0,0,1-5.63.57,57,57,0,0,1-5.91-.85q-3.47-.61-6.86-1.5c-.67-.17-1.37-.41-2.09-.64.5-.19.94-.36,1.27-.46,2.35-.7,4.72-1.41,7-2.28l1.08-.42c.59-.24,1.33-.55,2.07-.91a12.73,12.73,0,0,0,2-1.16,2.53,2.53,0,0,0,.81-.93,1,1,0,0,0,0-.73,1.16,1.16,0,0,0-.34-.44.69.69,0,0,0-.29-.13.64.64,0,0,0-.33,0,.6.6,0,0,0-.32.31,1.56,1.56,0,0,1-.42.54,3.54,3.54,0,0,1-.71.49,15.39,15.39,0,0,1-1.65.74l-.56.23c-1.54.62-3.12,1.17-4.7,1.68q-2.91.94-5.85,1.78c-.27.08-.64.15-1,.24a8,8,0,0,0-1.22.35,2.52,2.52,0,0,0-.94.6h0a.68.68,0,0,0-.18.37.7.7,0,0,0,0,.38.71.71,0,0,0,.21.28,1,1,0,0,0,.39.44,12.34,12.34,0,0,0,3.09,1.17c1.08.27,2.17.48,3.12.71a73,73,0,0,0,8.21,1.58c1.28.16,2.93.4,4.62.46a12.42,12.42,0,0,0,4.93-.67,5.64,5.64,0,0,0,1.88-1.2.66.66,0,0,0,.25-.05.9.9,0,0,0,.44-.4.73.73,0,0,0,0-.65.9.9,0,0,0-.23-.32,12.69,12.69,0,0,0-4.44-2c-.86-.27-1.69-.55-2.5-.86a155.29,155.29,0,0,0,37.59-6.24c5.76-1.68,11.73-3.23,17.38-5.5.88-.35,1.75-.72,2.62-1.12,3.83-1.74,7.16-4.2,10.71-6.2-1.61,3-3,6-4.73,8.82a22.5,22.5,0,0,1-7.75,8.16,47.44,47.44,0,0,1-6.28,3.08,45.57,45.57,0,0,1-5.58,1.85,36.42,36.42,0,0,1-6.25,1.18c-1.79.16-3.69,0-5.6.25l-.2.05a.84.84,0,0,0-.45.44.78.78,0,0,0,0,.6.88.88,0,0,0,.5.48,13.1,13.1,0,0,0,6.38.35,43.31,43.31,0,0,0,6.16-1.53c1.67-.53,3.38-1.13,5.06-1.8a41.86,41.86,0,0,0,7.1-3.6,28.3,28.3,0,0,0,8.31-8.67,58.8,58.8,0,0,0,5.23-10.66l.28-.14h0a.65.65,0,0,0,.34-.41A.72.72,0,0,0,232.47,214.8Z"/><polygon class="cls-1" points="193.79 240.13 193.79 240.13 193.79 240.13 193.79 240.13"/><polygon class="cls-1" points="157.99 234.3 157.99 234.3 157.99 234.3 157.99 234.3"/><polygon class="cls-1" points="227.97 233.85 227.97 233.85 227.97 233.85 227.97 233.85"/><path class="cls-1" d="M228,233.85h0S228,233.84,228,233.85Z"/><polygon class="cls-1" points="185.65 250.74 185.65 250.74 185.65 250.74 185.65 250.74"/><path class="cls-1" d="M229.1,234a1.08,1.08,0,0,0-.86,0h-.07l-.18,0h0c-.13.06-.07.13-.13.25a.53.53,0,0,0,0,.45.5.5,0,0,0,.15.2.38.38,0,0,1,.11.16,1,1,0,0,1,0,.64,4.35,4.35,0,0,1-.52,1.09,19.74,19.74,0,0,1-2.3,2.9,74.79,74.79,0,0,1-6.41,6c-1.29,1.09-2.31,1.89-2.68,2.15a18.92,18.92,0,0,1-3.81,2,34.57,34.57,0,0,1-9.47,2.09c-5.85.58-11.4-.55-17.23-1.07a1.2,1.2,0,0,0-.32.13c-.1,0-.21.19-.27.26a.64.64,0,0,0-.11.24.64.64,0,0,0,0,.43.66.66,0,0,0,.4.38,43.06,43.06,0,0,0,20.72,1.26,35.29,35.29,0,0,0,6.85-1.9,22.54,22.54,0,0,0,6.24-3.71,53.34,53.34,0,0,0,9-9.23,10.63,10.63,0,0,0,.71-1.14,8.58,8.58,0,0,0,.78-1.78,1.93,1.93,0,0,0,0-1.19A1,1,0,0,0,229.1,234Z"/><path class="cls-1" d="M215.79,253.83a.66.66,0,0,0-.5,0,.53.53,0,0,0-.23.17,21.32,21.32,0,0,1-6.38,4.62,54.64,54.64,0,0,1-5.1,2.49,20.12,20.12,0,0,1-2.49.82,27.22,27.22,0,0,1-11.19.32c-3.32-.57-6.3-2.06-9.66-2.93h0a.78.78,0,0,0-.48,0,.79.79,0,0,0-.44.44.81.81,0,0,0,.18.88,12.73,12.73,0,0,0,5.07,2.75,33,33,0,0,0,5.6,1.15,28.11,28.11,0,0,0,11.54-.52q1.32-.4,2.64-.93a45,45,0,0,0,5.93-3,27.5,27.5,0,0,0,3.38-2.22,7.28,7.28,0,0,0,2.49-3.31.6.6,0,0,0,0-.42A.66.66,0,0,0,215.79,253.83Z"/><polygon class="cls-1" points="184.71 265.81 184.72 265.81 184.72 265.81 184.71 265.81"/><path class="cls-1" d="M185.5,266.42c-.16-.08-.43-.31-.64-.22l-.15-.39a1.86,1.86,0,0,1-1,.89,18.43,18.43,0,0,1-7,1.78,24.33,24.33,0,0,1-7.33-1.34c-2.62-.87-5.18-1.9-7.75-2.95-1.68-.68-3.51-1.67-5.51-1.82h0a.67.67,0,0,0-.31.05.6.6,0,0,0-.27.2.72.72,0,0,0-.12.25.74.74,0,0,0,0,.49.82.82,0,0,0,.26.34c2.38,1.63,5.54,2.46,8.07,3.47a53.46,53.46,0,0,0,7.61,2.53c3.65.84,7.86,1.22,11.5-.23a11.32,11.32,0,0,0,2.86-1.7.85.85,0,0,0,.23-.39.79.79,0,0,0,0-.46A1.05,1.05,0,0,0,185.5,266.42Z"/><polygon class="cls-1" points="136.38 280.31 136.38 280.31 136.38 280.31 136.38 280.31"/><path class="cls-1" d="M165.63,273.4a.5.5,0,0,0-.34-.09,44,44,0,0,1-11.29-.39c-1.38-.28-2.9-.84-4.44-1.31a13.35,13.35,0,0,0-4.58-.77.58.58,0,0,0-.18,0,.63.63,0,0,0-.33.31.58.58,0,0,0,0,.47.51.51,0,0,0,.17.22,7.81,7.81,0,0,0,1,.65,10.15,10.15,0,0,0,4.67,3.59,26.37,26.37,0,0,0,5,1.5,35.17,35.17,0,0,1-12.93,1,.88.88,0,0,0-.43.05.92.92,0,0,0-.45.4.73.73,0,0,0-.05.63.64.64,0,0,0,.23.31c2.27,1.86,4.87,3.8,6.48,6.19a8,8,0,0,1,.41.75l.2.37-.19-.1h0a12.68,12.68,0,0,0-2.72-.94c-4.59-.91-9.16,0-13.65.59l-.17,0a.81.81,0,0,0-.42.37.63.63,0,0,0,0,.54.53.53,0,0,0,.34.29c3.58,1.56,6.94,2.84,11,2.51l.1.46.07-.14c.11,0,.15-.23.18-.31a.39.39,0,0,0,0-.26.36.36,0,0,0-.28-.21,32,32,0,0,1-8.11-2.28,45.9,45.9,0,0,1,7.38-.89,12.17,12.17,0,0,1,7.62,2.12.53.53,0,0,0,.5.06.48.48,0,0,0,.25-.22.5.5,0,0,0,0-.36,8.8,8.8,0,0,0-.36-1,19.32,19.32,0,0,0-5.54-7.13c5,.2,10-1,14.78-2.19l.09,0a.78.78,0,0,0,.43-.46.92.92,0,0,0,0-.59.7.7,0,0,0-.57-.44,29.68,29.68,0,0,1-9.79-2.69,50.94,50.94,0,0,0,5.66,1c3.38.41,7,.64,10.26-.4h0l.05-.13a.71.71,0,0,0,.32-.44.61.61,0,0,0,0-.42A.59.59,0,0,0,165.63,273.4Z"/><path class="cls-1" d="M129.17,295.31a25.36,25.36,0,0,1-6.14-.75.56.56,0,0,0-.57.94,11.23,11.23,0,0,1,3.43,8.38c-3.25-3-8.5-7-12.71-4.65a.28.28,0,0,0,.06.49.37.37,0,0,0-.2.39c.67,4.08,4.63,5.45,8.28,5.89-3.28,1.46-7,1-10.51.43a.45.45,0,0,0-.48.6,13.07,13.07,0,0,1,1.44,5.64,5.45,5.45,0,0,0-4.4-1.31c-1.28.1-2.55.36-3.84.37-1.7,0-2.62-.72-4.11-1.31a.33.33,0,0,0-.44.42,1.51,1.51,0,0,0,.09.18c-1.56-1.54-7.1,3.41-8.08,4.21-2.93,2.39-6.41,5.08-8.44,8.32a.27.27,0,0,0,.29.43c3.75,2,9.28-.05,11.4-3.52a.35.35,0,0,0-.54-.44c-2.88,2.75-6.5,4.3-10.45,3.6a91.86,91.86,0,0,1,7.91-7.23A51.23,51.23,0,0,1,96,312.8a29,29,0,0,0,3.12-1.67l0,0c2.16,4.37,9.89-1.25,12.64,3a.48.48,0,0,0,.85-.21,10.59,10.59,0,0,0-1.11-6.45c3.81.51,7.75.76,11.14-1.37a.32.32,0,0,0-.14-.57c-2.44-.23-5.47-1-7.23-2.84-.74-.77-1.54-1.74-.88-2.68a.37.37,0,0,0,.07-.16c2.08.09,4,.11,5.93,1.28a33.17,33.17,0,0,1,5.61,4.77.7.7,0,0,0,1.12-.43,11.42,11.42,0,0,0-2.6-9.42,28,28,0,0,0,6.2.18c1.25-.08,4.85-.07,5.14-1.82l0,0C134.27,295.67,131,295.39,129.17,295.31Z"/><path class="cls-1" d="M92.38,308.08A18,18,0,0,0,94,306a.47.47,0,0,0,.33-.34c0-.2.09-.4.12-.59a3.44,3.44,0,0,0,.26-1.46c.28-2.08.3-4.22.51-6.26.27-2.67.59-5.33,1-8,.84-5.31,2.45-10.48,3.32-15.81a.92.92,0,0,0,0-.16.46.46,0,0,0-.86-.09c-2.17,4.91-3.08,10.61-3.92,15.83q-.7,4.39-1.09,8.82a34.69,34.69,0,0,0-.25,7.56,18,18,0,0,1-2.19,2.68,61.62,61.62,0,0,1-6.4,5.9A53.73,53.73,0,0,1,78,318.89a15.61,15.61,0,0,1-4.51,2,6,6,0,0,1-.94.11l-.09,0h0a104.61,104.61,0,0,0-11.79,1.72c-1.19.22-2.54.38-3.87.64a12.14,12.14,0,0,0-3.8,1.31,4.07,4.07,0,0,0-1.79,2.09,4.88,4.88,0,0,0-.15,2.63,7.69,7.69,0,0,0,2,3.74A5.57,5.57,0,0,0,56.66,335h.12a.5.5,0,0,0,.32-.22.47.47,0,0,0,.08-.37.44.44,0,0,0-.3-.33A8.12,8.12,0,0,1,54,332.45a5.16,5.16,0,0,1-1.69-2.76,4.07,4.07,0,0,1,0-1.48,3.46,3.46,0,0,1,1.58-2.44,8.53,8.53,0,0,1,2.88-1l1.77-.32c2.51-.46,5-.91,7.55-1.26,1.86-.25,3.8-.41,5.7-.79a18.53,18.53,0,0,0,2.83-.78.35.35,0,0,0,.17-.15.27.27,0,0,0,0-.12,19.05,19.05,0,0,0,2.86-1.44,62.71,62.71,0,0,0,8.08-5.53A46.18,46.18,0,0,0,92.38,308.08Z"/><path class="cls-1" d="M73.14,324.4a.44.44,0,0,0-.3,0l-.13,0A34.21,34.21,0,0,1,68,326.8,13.58,13.58,0,0,0,63.85,329a5.88,5.88,0,0,0-1.59,2.28A5,5,0,0,0,62,334l0,.07a8.08,8.08,0,0,0,3.45,4.76,7.74,7.74,0,0,0,5.73,1.44,5,5,0,0,0,.76-.21.39.39,0,0,0,.23-.22.53.53,0,0,0,0-.28.6.6,0,0,0-.12-.22.4.4,0,0,0-.26-.1,12.93,12.93,0,0,1-3.84-.8,9,9,0,0,1-3.49-2.19,4.51,4.51,0,0,1-1.17-2.19,4.45,4.45,0,0,1,0-1.74,4.1,4.1,0,0,1,1.06-2.06A6.31,6.31,0,0,1,66.33,329c1.45-.69,3.18-1.12,4.63-1.89a5.17,5.17,0,0,0,2.33-2.2.39.39,0,0,0,0-.26A.37.37,0,0,0,73.14,324.4Z"/><polygon class="cls-1" points="97.47 322.51 97.47 322.51 97.47 322.51 97.47 322.51"/><path class="cls-1" d="M97.47,322.51a.27.27,0,0,0-.23-.07.26.26,0,0,0-.18.13.27.27,0,0,0,0,.2l0,.08a17.77,17.77,0,0,1,2,4.91,7.44,7.44,0,0,1,0,2.9A7.34,7.34,0,0,1,97.5,334a11.71,11.71,0,0,1-3,2.38c-.06,0-.12.06-.15.13a.27.27,0,0,0,0,.17c0,.1.06.11.13.16s.15,0,.26-.06h0a6.9,6.9,0,0,0,4.58-3.72,8.82,8.82,0,0,0,.74-5.71A9,9,0,0,0,97.47,322.51Z"/><path class="cls-1" d="M72.27,295.64a.28.28,0,0,0,.2,0,.26.26,0,0,0,.21-.17,23,23,0,0,0,1.6-8,36.84,36.84,0,0,1,1.07-8.06c1.61-5.37,4.57-10.08,6.9-15.19a.39.39,0,0,0,0-.26.43.43,0,0,0-.19-.29.44.44,0,0,0-.34-.07.48.48,0,0,0-.26.16,44.32,44.32,0,0,0-7.19,15.36,42.38,42.38,0,0,0-1.06,8,71.55,71.55,0,0,1-1.14,8.22h0v.1A.32.32,0,0,0,72.27,295.64Z"/><path class="cls-1" d="M91.45,301.37c.32-.07.64-.15,1-.25a.31.31,0,0,0,.18-.14.36.36,0,0,0,0-.2.31.31,0,0,0-.11-.18.3.3,0,0,0-.21-.08c-3.16.06-5.76-.15-8.47-1.83a.6.6,0,0,0-.43-.08.53.53,0,0,0-.34.22.48.48,0,0,0-.09.42v.07c.5,1.95,1.57,4,2,6a7.85,7.85,0,0,1,.16,2.45,6.87,6.87,0,0,1-.38,1.78c-.07-.2-.13-.41-.17-.51l0-.08a11,11,0,0,0-.87-1.88,6,6,0,0,0-2.44-2.28,5.23,5.23,0,0,0-3.3-.42l-.09,0c-3.14.63-5.82,2.39-8.48,4.08s-5.28,3.49-8.27,4.33h0a.47.47,0,0,0-.29.24.58.58,0,0,0,0,.34.5.5,0,0,0,.18.3.44.44,0,0,0,.39.11l.36-.06a18.55,18.55,0,0,0,6-2.7c1.92-1.21,3.75-2.56,5.54-3.56a16.79,16.79,0,0,1,4.64-2,5.29,5.29,0,0,1,2,0,4.29,4.29,0,0,1,2.85,2.07A12.62,12.62,0,0,1,84.12,311a.42.42,0,0,0,.22.28.46.46,0,0,0,.3,0,.56.56,0,0,0,.37-.25,8.41,8.41,0,0,0,.8-6.17,39.45,39.45,0,0,0-1.37-4.62A11.22,11.22,0,0,0,91.45,301.37Z"/><path class="cls-1" d="M36.26,308.22a.47.47,0,0,0,.55.38.5.5,0,0,0,.27-.16c.56-.63,1.11-1.36,1.72-2a4.12,4.12,0,0,1,2.09-1.24,2.28,2.28,0,0,1,.39-.06,8,8,0,0,1,4,1c2.63,1.27,5.14,3,8.07,3.75a8.61,8.61,0,0,0,3.87.1,13.1,13.1,0,0,0,5.34-2.63A43.91,43.91,0,0,0,72,297.22a.22.22,0,0,0,0-.28l-.05-.06a.25.25,0,0,0-.33,0c-3.71,3.42-6.68,7.59-11,10.22a11.54,11.54,0,0,1-3.77,1.57A9.92,9.92,0,0,1,50,307.31c-1.18-.63-2.46-1.49-3.81-2.2a9.69,9.69,0,0,0-4.25-1.3,5.89,5.89,0,0,0-1.27.11,6,6,0,0,0-4.42,4l.21.07-.21-.07A.46.46,0,0,0,36.26,308.22Z"/><path class="cls-1" d="M69.63,318.81h0a.55.55,0,0,0-.12.48.6.6,0,0,0,.26.39.56.56,0,0,0,.46.1.55.55,0,0,0,.34-.2,10.46,10.46,0,0,0,1.73-2.86,5.53,5.53,0,0,0,.38-3.08,4.07,4.07,0,0,0-2.48-2.91.34.34,0,0,0-.22,0,.35.35,0,0,0-.23.16.34.34,0,0,0-.06.27.32.32,0,0,0,.15.21,3.76,3.76,0,0,1,1.69,2.37,4.58,4.58,0,0,1-.34,2.57A10.18,10.18,0,0,1,69.63,318.81Z"/><path class="cls-1" d="M49.65,321.05a9.36,9.36,0,0,1,5.1-2.3,7.12,7.12,0,0,0,3.43-.89c.25-.14,0-.46-.22-.4-2.64.72-5,.12-7.43,1.72-2.58,1.73-4.42,3.23-7.73,3a.47.47,0,0,0-.53.39A5.44,5.44,0,0,0,46,328.33c.13.05.27-.13.14-.22-1.76-1.18-3.1-2.83-3-5A8.93,8.93,0,0,0,49.65,321.05Z"/><path class="cls-1" d="M51.79,315.44a.34.34,0,0,0,.11-.3.34.34,0,0,0-.11-.18.29.29,0,0,0-.24-.06l-.07,0a31.24,31.24,0,0,1-6.54,1.92l-2.54.47c-1.1.21-2.51.12-3.78.37a5,5,0,0,0-1.33.46,3.77,3.77,0,0,0-1.76,1.9,4.11,4.11,0,0,0-.19,2.38,5.46,5.46,0,0,0,3.59,4.1.37.37,0,0,0,.18,0,.43.43,0,0,0,.25-.15.41.41,0,0,0,.08-.3.39.39,0,0,0-.16-.23,13.93,13.93,0,0,1-1.5-1.09,3.07,3.07,0,0,1-1-1.4c0-.07,0-.16-.06-.25a5.5,5.5,0,0,1,0-2.06,2.28,2.28,0,0,1,.93-1.59,3.71,3.71,0,0,1,1.14-.42c1-.19,2-.16,3.07-.36h0a2.46,2.46,0,0,1,.28,0c.83-.17,1.69-.29,2.55-.46A16.22,16.22,0,0,0,51.79,315.44Z"/><path class="cls-1" d="M38.35,311.1c1.8.4,3.87,1.22,6,1.84a13.31,13.31,0,0,0,6.21.67l.11,0a.43.43,0,0,0,.26-.17.38.38,0,0,0-.25-.58c-4.93-1-9.9-3.45-15-3.7a7.69,7.69,0,0,0-1.64.11,4.57,4.57,0,0,0-2.24,1.12,4.87,4.87,0,0,0-1.24,2,10.14,10.14,0,0,0-.16,5.15,15,15,0,0,0,.43,1.63.58.58,0,0,0,.29.34.63.63,0,0,0,.4.06.76.76,0,0,0,.39-.22.63.63,0,0,0,.14-.47c-.07-.81-.26-1.87-.35-3a7.94,7.94,0,0,1,.2-3.08,2.64,2.64,0,0,1,1-1.43,3.7,3.7,0,0,1,1.43-.6A10.35,10.35,0,0,1,38.35,311.1Z"/><path class="cls-1" d="M38.57,272.69a.77.77,0,0,0,.63,0,.8.8,0,0,0,.42-.41.79.79,0,0,0,0-.62l0-.07c-.11-.23-.21-.46-.31-.69a15.23,15.23,0,0,1-.63-2.09c.44-1,.8-2,1.27-3a8.33,8.33,0,0,1,2-2.65,14.27,14.27,0,0,1,4.22-2.57,16.44,16.44,0,0,1,2.58-.81c5.18-1.23,10.63-1,15.94-.58,6.09.53,12.06,1.08,17.57,3.81s10.34,6.89,15.64,10h0c.09,0,.22.09.3.05a.38.38,0,0,0,.19-.16.36.36,0,0,0,0-.27.38.38,0,0,0-.09-.13c-5.19-4.57-10.89-9.23-17.38-11.94-5.77-2.4-12-2.91-18.19-3.33-5.52-.37-11.71-.58-17,1.56l-.37.15a16.19,16.19,0,0,0-7.51,6.36c-.06-.2-.14-.4-.22-.6l-.1-.25a.45.45,0,0,0-.22-.21.37.37,0,0,0-.53.27,9.24,9.24,0,0,0,.1,3.77,6.77,6.77,0,0,0,0,1.74.57.57,0,0,0,0,.14.53.53,0,0,0,.13.2c-1.23-.43-2.47-.8-3.68-1.25a10.34,10.34,0,0,1-3.18-1.69,6.85,6.85,0,0,1-2-2.83c-.09-.22-.17-.45-.25-.69a.26.26,0,0,0-.32-.17h0a.25.25,0,0,0-.17.31c.15.49.33,1,.56,1.59a7.74,7.74,0,0,0,2.95,4C33.34,271,36.13,271.55,38.57,272.69Z"/><path class="cls-1" d="M55.14,233.68c-4.3.94-7.92,3.56-11.09,6.54-2.18,2.06-3.56,4.85-5.82,6.85,0,0-3,2.38-1.87,2.4,1.77,0,3.17-1.78,4.39-3.33a2.43,2.43,0,0,1,.34.3,5.79,5.79,0,0,0,.13.68c-.18.4-.59.65-.71,1.1a.18.18,0,0,0,.23.21,1.25,1.25,0,0,0,.66-.43,1.8,1.8,0,0,1,0,.22c0,.45.64.4.69,0a1.48,1.48,0,0,0,0-.21l.1-.08a2.73,2.73,0,0,0-.16-2.82.43.43,0,0,0-.4-.16c.43-.6.84-1.19,1.22-1.71a4.57,4.57,0,0,1,1,3.88A2.67,2.67,0,0,1,42.75,249c-.89.46-1.77.14-2.7,0-.23,0-.5.27-.26.46a3,3,0,0,0,1.63.63c4.75,1.14,5.89-4.65,9.54-6.55l.56-.25c.36-.16.21-.75-.18-.61a6.38,6.38,0,0,0-1.11.55,10.75,10.75,0,0,0-3.82,3.31c-.18.24.14.46.36.36-1.05,1.36-2.16,2.57-3.88,2.9a3.2,3.2,0,0,0,1.74-2.09,4.87,4.87,0,0,0-1.35-5,22.87,22.87,0,0,1,3-3.09c1.78-.78,3.52-1.52,5.42-1.1-2.47.85-5.92,2-6.55,4.62,0,.15.17.29.28.16a9.47,9.47,0,0,1,3.07-2.77c1.36-.69,2.8-1.18,4.22-1.74a.3.3,0,0,0,0-.57,6.61,6.61,0,0,0-5.38.53,37.71,37.71,0,0,1,8-4.75"/><path class="cls-1" d="M40.72,246.14a1.73,1.73,0,0,1,.35.31c0,.22.08.46.13.69-.18.41-.6.68-.73,1.13a.2.2,0,0,0,.24.23,1.4,1.4,0,0,0,.68-.45,1.8,1.8,0,0,1,0,.22c0,.47.66.42.71,0,0-.07,0-.14,0-.21l.09-.09a2.76,2.76,0,0,0-.16-2.89.44.44,0,0,0-.42-.17A10.9,10.9,0,0,1,40.72,246.14Z"/></g></g></svg>